<svg width="240" height="43" fill="none" xmlns="http://www.w3.org/2000/svg"><path fill-rule="evenodd" clip-rule="evenodd" d="M158.48 14.213v.082c-1.108-.768-2.469-1.478-4.455-1.478-2.059 0-3.491.418-5.147 1.252-1.657.835-2.959 1.994-3.906 3.478-.923 1.483-1.384 3.372-1.384 5.25 0 1.854.461 3.316 1.384 4.8.947 1.483 2.237 2.63 3.87 3.442 1.657.834 3.526 1.252 5.609 1.252s3.953-.418 5.609-1.252c1.657-.812 2.947-1.96 3.87-3.443.923-1.46 1.384-3.13 1.384-5.007 0-.154-.003-.306-.009-.457v-7.607c0-3.531-1.174-5.608-2.007-6.724-2.024-2.71-5.112-4.6-9.372-4.6-3.515.106-7.688 1.486-9.924 3.947l4.318 4.46c1.278-1.07 2.743-1.966 5.299-1.966 2.528 0 4.834 1.219 4.885 4.572l-.024-.001zm-1.068 5.038c.757.811 1.068 1.924 1.068 3.338 0 1.39-.311 2.48-1.068 3.269-.757.788-1.691 1.238-2.874 1.238-1.184 0-2.191-.45-2.948-1.238-.758-.789-.991-1.878-.991-3.27 0-1.413.233-2.526.991-3.337.757-.789 1.764-1.194 2.948-1.194 1.183 0 2.117.405 2.874 1.194zm19.591-9.194c6.658 0 8.979 4.388 9.427 5.239.717 1.363 1.213 3.278 1.213 5.679v10.99h-6.744v-1.992c-.922 1.573-3.07 2.318-5.902 2.318-1.5 0-2.797-.28-3.892-.842-1.094-.561-1.927-1.314-2.499-2.258-.547-.97-1.026-2.1-1.026-3.325 0-1.964.907-3.82 2.312-4.891 1.404-1.097 3.633-2.326 6.501-2.326 2.867 0 4.506.839 4.506.839 0-1.363-2.163-3.613-4.723-3.613a7.41 7.41 0 00-2.651.47c-.988.378-1.639.733-2.458 1.677l-2.854-4.848.311-.223c.964-.694 1.943-1.4 3.515-2.062 1.741-.734 3.417-.832 4.964-.832zm.004 17.504c.785 0 1.761-.22 2.356-.629.595-.408 1.331-1.258 1.331-2.621 0 0-1.536-.524-3.38-.524-1.843 0-2.97.38-2.97 1.782 0 .638.265.98.717 1.363.452.383 1.161.63 1.946.63zM92.47 10.681V32h-6.8V16.578h-6.73v15.423h-6.798V10.68H92.47zm140.428 11.532l-3.877 7.991h-4.137l-3.954-7.991V32.29h-6.478V10.68h7.343l5.31 10.86 5.542-10.86h6.715v21.61h-6.464V22.213zM124.893 30.86c1.687.953 3.58 1.43 5.677 1.43 2.121 0 4.026-.477 5.713-1.43a10.107 10.107 0 003.942-3.97c.94-1.694 1.41-3.613 1.41-5.757 0-2.144-.47-4.05-1.41-5.717a9.84 9.84 0 00-3.942-3.93c-1.687-.953-3.592-1.43-5.713-1.43-2.122 0-4.026.477-5.714 1.43-1.663.926-2.977 2.236-3.941 3.93-.94 1.694-1.41 3.6-1.41 5.717 0 2.144.47 4.063 1.41 5.757a10.358 10.358 0 003.978 3.97zm8.642-5.915c-.771.9-1.76 1.35-2.965 1.35-1.205 0-2.194-.45-2.965-1.35-.772-.927-1.157-2.197-1.157-3.812 0-1.588.385-2.832 1.157-3.732.771-.9 1.76-1.35 2.965-1.35 1.205 0 2.194.45 2.965 1.35.772.9 1.157 2.144 1.157 3.732 0 1.615-.385 2.885-1.157 3.812zm-25.499-14.889c1.782 0 3.395.463 4.84 1.388 1.468.9 2.624 2.195 3.467 3.887.867 1.666 1.3 3.609 1.3 5.83 0 2.22-.433 4.177-1.3 5.87-.843 1.665-1.999 2.96-3.467 3.886-1.445.899-3.058 1.349-4.84 1.349-2.288 0-3.87-.23-5.454-1.534v8.623h-6.863V10.68h6.634v1.662c1.276-1.666 3.106-2.286 5.683-2.286zm-1.504 16.338c1.204 0 2.25-.567 3.021-1.465.77-.926 1.155-2.182 1.155-3.768 0-1.586-.385-2.83-1.155-3.728-.771-.925-1.758-1.388-2.962-1.388-1.204 0-2.191.463-2.962 1.388-.77.899-1.156 2.142-1.156 3.728 0 1.586.386 2.842 1.156 3.768.771.898 1.7 1.465 2.903 1.465zm104.893-2.633c.229-.831.316-2.078.316-3.117 0-2.078-.509-3.74-1.551-5.61-.909-1.63-2.793-3.117-3.93-3.74-1.579-.867-3.193-1.247-5.131-1.247-2.033 0-3.791.537-5.418 1.454-1.626.918-2.999 2.286-3.826 3.637-.909 1.605-1.655 3.05-1.655 6.13 0 1.454.414 3.74 1.607 5.815.875 1.457 2.296 2.904 4.018 3.822 1.722.917 3.169 1.375 5.441 1.375 3.93 0 6.846-1.264 8.75-3.274l-3.993-3.79c-.414.415-1.034.934-1.862 1.246l-.079.03c-.536.203-1.018.386-2.299.386-.724 0-1.522-.176-2.275-.52-1.138-.52-2.031-1.35-2.341-2.597h14.228zm-13.335-7.169c.718-.637 1.965-1.143 3.309-1.143 1.551 0 2.792.624 3.31 1.143.31.312 1.034 1.143 1.034 2.182h-8.687c0-.623.34-1.545 1.034-2.182zm9.446-10.907c0 1.368-1.272 2.476-2.84 2.476-1.569 0-2.841-1.108-2.841-2.476 0-1.367 1.272-2.476 2.841-2.476 1.568 0 2.84 1.109 2.84 2.476zm-10.137 2.862c1.569 0 2.84-1.108 2.84-2.476 0-1.367-1.271-2.475-2.84-2.475s-2.84 1.108-2.84 2.475c0 1.368 1.271 2.476 2.84 2.476z" fill="#212121"/><path d="M59.977 18.935c2.187 1.174 2.187 4.324 0 5.498L26.074 42.628c-2.067 1.11-4.564-.395-4.564-2.749V3.49c0-2.354 2.497-3.858 4.564-2.749l33.903 18.195z" fill="#D0F4FF"/><path d="M49.43 18.935c2.187 1.174 2.187 4.324 0 5.498L15.527 42.628c-2.066 1.11-4.564-.395-4.564-2.749V3.49c0-2.354 2.498-3.858 4.564-2.749L49.43 18.935z" fill="#fff"/><path fill-rule="evenodd" clip-rule="evenodd" d="M35.308 22.125a.5.5 0 000-.881L4.254 4.578a.5.5 0 00-.736.44V38.35a.5.5 0 00.736.44l31.054-16.665zm3.16 2.308c2.188-1.174 2.188-4.324 0-5.498L4.567.74C2.5-.369.002 1.135.002 3.49v36.39c0 2.353 2.498 3.857 4.564 2.748L38.47 24.433z" fill="#212121"/></svg>