<svg xmlns="http://www.w3.org/2000/svg">
    <symbol id="menu" viewBox="0 0 30 21">
        <path d="M0 1.5H30M0 11H30M0 20H30" stroke="currentColor" stroke-width="2"/>
    </symbol>
    <symbol id="cross" viewBox="0 0 24 24">
        <path fill-rule="evenodd" clip-rule="evenodd" d="M13.4153 11.9975L23.3151 2.09781L21.9009 0.683594L12.0011 10.5833L2.10172 0.683907L0.6875 2.09812L10.5869 11.9975L0.687653 21.8968L2.10187 23.311L12.0011 13.4117L21.9007 23.3113L23.3149 21.8971L13.4153 11.9975Z" fill="currentColor"/>
    </symbol>
    <symbol id="menu-sticky" viewBox="0 0 20 10" fill="none"><path fill="currentColor" d="M0 0h20v2H0zM0 4h20v2H0zM0 8h20v2H0z"/></symbol>
    <symbol id="cross-sticky" viewBox="0 0 20 12" fill="none"><path fill-rule="evenodd" clip-rule="evenodd" d="M10.116 4.778L1.84 0l-1 1.732 7.276 4.2L.84 10.135l1 1.732 8.276-4.778 8.044 4.644 1-1.732-7.044-4.067 7.044-4.067-1-1.732-8.044 4.644z" fill="currentColor"/></symbol>
    <symbol id="arrow-left" viewBox="0 0 7 11">
        <path fill-rule="evenodd" clip-rule="evenodd" d="M5.93934 0.37936L7 1.44116L2.75491 5.69082L6.99834 9.9374L5.9375 10.999L0.63331 5.6909L1.23497 5.0888L5.93934 0.37936Z" fill="currentColor"/>
    </symbol>
    <symbol id="arrow-bottom" viewBox="0 0 9 11">
        <path fill-rule="evenodd" clip-rule="evenodd" d="M5.51755 6.99101L5.51768 0.000227619L3.77916 0.00026374L3.77903 6.99062L2.18968 5.39747L0.960325 6.62976L4.64822 10.3265L8.339 6.6273L7.1097 5.39507L5.51755 6.99101Z" fill="currentColor"/>
    </symbol>
    <symbol id="logo-dark" viewBox="0 0 240 43" fill="none">
        <path fill-rule="evenodd" clip-rule="evenodd" d="M158.48 14.213V14.2953C157.372 13.5273 156.011 12.8174 154.025 12.8174C151.966 12.8174 150.534 13.2347 148.878 14.0693C147.221 14.9039 145.919 16.063 144.972 17.5467C144.049 19.0303 143.588 20.9189 143.588 22.7966C143.588 24.6512 144.049 26.1126 144.972 27.5963C145.919 29.0799 147.209 30.2275 148.842 31.0389C150.499 31.8734 152.368 32.2907 154.451 32.2907C156.534 32.2907 158.404 31.8734 160.06 31.0389C161.717 30.2275 163.007 29.0799 163.93 27.5963C164.853 26.1358 165.314 24.4666 165.314 22.5889C165.314 22.4353 165.311 22.283 165.305 22.132V14.5247C165.305 10.9939 164.131 8.91707 163.298 7.80103C161.274 5.09046 158.186 3.2002 153.926 3.2002C150.411 3.30721 146.238 4.68727 144.002 7.14818L148.32 11.6078C149.598 10.5378 151.063 9.64165 153.619 9.64165C156.147 9.64165 158.453 10.8609 158.504 14.2142L158.48 14.213ZM157.412 19.2506C158.169 20.062 158.48 21.1747 158.48 22.5889C158.48 23.9798 158.169 25.0694 157.412 25.8576C156.655 26.6458 155.721 27.096 154.538 27.096C153.354 27.096 152.347 26.6458 151.59 25.8576C150.832 25.0694 150.599 23.9798 150.599 22.5889C150.599 21.1747 150.832 20.062 151.59 19.2506C152.347 18.4624 153.354 18.0571 154.538 18.0571C155.721 18.0571 156.655 18.4624 157.412 19.2506ZM177.003 10.0573C183.661 10.0573 185.982 14.4448 186.43 15.2959C187.147 16.6589 187.643 18.5739 187.643 20.975V31.9648H180.899V29.9728C179.977 31.5455 177.829 32.2908 174.997 32.2908C173.497 32.2908 172.2 32.0102 171.105 31.449C170.011 30.8877 169.178 30.1351 168.606 29.1912C168.059 28.2218 167.58 27.0906 167.58 25.866C167.58 23.9016 168.487 22.0465 169.892 20.975C171.296 19.878 173.525 18.6492 176.393 18.6492C179.26 18.6492 180.899 19.488 180.899 19.488C180.899 18.1249 178.736 15.8754 176.176 15.8754C175.248 15.8754 174.344 16.0299 173.525 16.3444C172.537 16.7234 171.886 17.0783 171.067 18.022L168.213 13.1742C168.317 13.0999 168.42 13.0253 168.524 12.9507L168.524 12.9507C169.488 12.2566 170.467 11.5512 172.039 10.8886C173.78 10.1546 175.456 10.0573 177.003 10.0573ZM177.007 27.5612C177.792 27.5612 178.768 27.3403 179.363 26.9321C179.958 26.5239 180.694 25.674 180.694 24.3109C180.694 24.3109 179.158 23.7867 177.314 23.7867C175.471 23.7867 174.344 24.1661 174.344 25.5692C174.344 26.207 174.609 26.5495 175.061 26.9321C175.513 27.3148 176.222 27.5612 177.007 27.5612ZM92.4696 10.6803V32.0007H85.6711V16.578H78.9391V32.0007H72.1406V10.6803H92.4696ZM232.898 22.2127L229.021 30.2041H224.884L220.93 22.2127V32.2906H214.452V10.6803H221.795L227.105 21.5412L232.647 10.6803H239.362V32.2906H232.898V22.2127ZM124.893 30.8615C126.58 31.8144 128.473 32.2908 130.57 32.2908C132.691 32.2908 134.596 31.8144 136.283 30.8615C137.971 29.9086 139.285 28.5852 140.225 26.8912C141.165 25.1973 141.635 23.2783 141.635 21.1344C141.635 18.9904 141.165 17.0847 140.225 15.4172C139.285 13.7232 137.971 12.413 136.283 11.4866C134.596 10.5338 132.691 10.0573 130.57 10.0573C128.448 10.0573 126.544 10.5338 124.856 11.4866C123.193 12.413 121.879 13.7232 120.915 15.4172C119.975 17.1112 119.505 19.0169 119.505 21.1344C119.505 23.2783 119.975 25.1973 120.915 26.8912C121.879 28.5852 123.205 29.9086 124.893 30.8615ZM133.535 24.9458C132.764 25.8457 131.775 26.2957 130.57 26.2957C129.365 26.2957 128.376 25.8457 127.605 24.9458C126.833 24.0194 126.448 22.7489 126.448 21.1344C126.448 19.5463 126.833 18.3022 127.605 17.4023C128.376 16.5024 129.365 16.0524 130.57 16.0524C131.775 16.0524 132.764 16.5024 133.535 17.4023C134.307 18.3022 134.692 19.5463 134.692 21.1344C134.692 22.7489 134.307 24.0194 133.535 24.9458ZM108.036 10.0573C109.818 10.0573 111.431 10.52 112.876 11.4454C114.344 12.3444 115.5 13.6399 116.343 15.332C117.21 16.9977 117.643 18.941 117.643 21.1619C117.643 23.3828 117.21 25.3393 116.343 27.0315C115.5 28.6971 114.344 29.9927 112.876 30.918C111.431 31.817 109.818 32.2665 108.036 32.2665C105.748 32.2665 104.166 32.0373 102.582 30.7334V39.3556H95.7193V10.6807H102.353V12.343C103.629 10.6773 105.459 10.0573 108.036 10.0573ZM106.532 26.3951C107.736 26.3951 108.782 25.8285 109.553 24.9295C110.323 24.0041 110.708 22.7483 110.708 21.1619C110.708 19.5755 110.323 18.3329 109.553 17.4339C108.782 16.5086 107.795 16.0459 106.591 16.0459C105.387 16.0459 104.4 16.5086 103.629 17.4339C102.859 18.3329 102.473 19.5755 102.473 21.1619C102.473 22.7483 102.859 24.0041 103.629 24.9295C104.4 25.8285 105.329 26.3951 106.532 26.3951ZM211.425 23.762C211.654 22.9308 211.741 21.6841 211.741 20.6451C211.741 18.5672 211.232 16.9049 210.19 15.0348C209.281 13.4041 207.397 11.918 206.26 11.2946C204.681 10.4283 203.067 10.0479 201.129 10.0479C199.096 10.0479 197.338 10.5851 195.711 11.5024C194.085 12.4196 192.712 13.7881 191.885 15.1387C190.976 16.7439 190.23 18.1899 190.23 21.2685C190.23 22.723 190.644 25.0087 191.837 27.0836C192.712 28.5411 194.133 29.9882 195.855 30.9055C197.577 31.8227 199.024 32.2813 201.296 32.2813C205.226 32.2813 208.142 31.0172 210.046 29.0073L206.053 25.2165C205.639 25.6321 205.019 26.1515 204.191 26.4632L204.112 26.4932C203.576 26.6964 203.094 26.8788 201.813 26.8788C201.089 26.8788 200.291 26.7032 199.538 26.3593C198.4 25.8398 197.507 25.0087 197.197 23.762H211.425ZM198.09 16.5932C198.808 15.9562 200.055 15.4504 201.399 15.4504C202.95 15.4504 204.191 16.0737 204.709 16.5932C205.019 16.9049 205.743 17.7361 205.743 18.775H197.056C197.056 18.1516 197.396 17.2302 198.09 16.5932ZM207.536 5.68621C207.536 7.05353 206.264 8.16197 204.696 8.16197C203.127 8.16197 201.855 7.05353 201.855 5.68621C201.855 4.31888 203.127 3.21045 204.696 3.21045C206.264 3.21045 207.536 4.31888 207.536 5.68621ZM197.399 8.5482C198.968 8.5482 200.239 7.43976 200.239 6.07244C200.239 4.70511 198.968 3.59668 197.399 3.59668C195.83 3.59668 194.559 4.70511 194.559 6.07244C194.559 7.43976 195.83 8.5482 197.399 8.5482Z" fill="#212121"/>
        <path d="M59.9766 18.9351C62.1641 20.109 62.1641 23.2594 59.9766 24.4334L26.074 42.6283C24.0074 43.7374 21.5098 42.233 21.5098 39.8791L21.5098 3.48932C21.5098 1.13542 24.0074 -0.368967 26.0741 0.740155L59.9766 18.9351Z" fill="#D0F4FF"/>
        <path d="M49.4297 18.9351C51.6172 20.109 51.6172 23.2594 49.4297 24.4334L15.5272 42.6283C13.4605 43.7374 10.9629 42.233 10.9629 39.8791L10.9629 3.48932C10.9629 1.13542 13.4605 -0.368967 15.5272 0.740155L49.4297 18.9351Z" fill="white"/>
        <path fill-rule="evenodd" clip-rule="evenodd" d="M35.3081 22.1248C35.6595 21.9362 35.6595 21.4323 35.3081 21.2437L4.25449 4.57771C3.9214 4.39895 3.51805 4.64024 3.51805 5.01828L3.51805 38.3502C3.51805 38.7282 3.92139 38.9695 4.25449 38.7907L35.3081 22.1248ZM38.4688 24.4334C40.6562 23.2594 40.6562 20.109 38.4688 18.9351L4.56622 0.740155C2.49959 -0.368967 0.00194928 1.13542 0.00194917 3.48932L0.0019476 39.8791C0.0019475 42.233 2.49959 43.7374 4.56621 42.6283L38.4688 24.4334Z" fill="#212121"/>
    </symbol>
    <symbol id="logo-light" viewBox="0 0 240 43" fill="none">
        <path fill-rule="evenodd" clip-rule="evenodd" d="M158.48 14.213V14.2953C157.372 13.5273 156.011 12.8174 154.025 12.8174C151.966 12.8174 150.534 13.2347 148.878 14.0693C147.221 14.9039 145.919 16.063 144.972 17.5467C144.049 19.0303 143.588 20.9189 143.588 22.7966C143.588 24.6512 144.049 26.1126 144.972 27.5963C145.919 29.0799 147.209 30.2275 148.842 31.0389C150.499 31.8734 152.368 32.2907 154.451 32.2907C156.534 32.2907 158.404 31.8734 160.06 31.0389C161.717 30.2275 163.007 29.0799 163.93 27.5963C164.853 26.1358 165.314 24.4666 165.314 22.5889C165.314 22.4353 165.311 22.283 165.305 22.132V14.5247C165.305 10.9939 164.131 8.91707 163.298 7.80103C161.274 5.09046 158.186 3.2002 153.926 3.2002C150.411 3.30721 146.238 4.68727 144.002 7.14818L148.32 11.6078C149.598 10.5378 151.063 9.64165 153.619 9.64165C156.147 9.64165 158.453 10.8609 158.504 14.2142L158.48 14.213ZM157.412 19.2506C158.169 20.062 158.48 21.1747 158.48 22.5889C158.48 23.9798 158.169 25.0694 157.412 25.8576C156.655 26.6458 155.721 27.096 154.538 27.096C153.354 27.096 152.347 26.6458 151.59 25.8576C150.832 25.0694 150.599 23.9798 150.599 22.5889C150.599 21.1747 150.832 20.062 151.59 19.2506C152.347 18.4624 153.354 18.0571 154.538 18.0571C155.721 18.0571 156.655 18.4624 157.412 19.2506ZM177.003 10.0573C183.661 10.0573 185.982 14.4448 186.43 15.2959C187.147 16.6589 187.643 18.5739 187.643 20.975V31.9648H180.899V29.9728C179.977 31.5455 177.829 32.2908 174.997 32.2908C173.497 32.2908 172.2 32.0102 171.105 31.449C170.011 30.8877 169.178 30.1351 168.606 29.1912C168.059 28.2218 167.58 27.0906 167.58 25.866C167.58 23.9016 168.487 22.0465 169.892 20.975C171.296 19.878 173.525 18.6492 176.393 18.6492C179.26 18.6492 180.899 19.488 180.899 19.488C180.899 18.1249 178.736 15.8754 176.176 15.8754C175.248 15.8754 174.344 16.0299 173.525 16.3444C172.537 16.7234 171.886 17.0783 171.067 18.022L168.213 13.1742C168.317 13.0999 168.42 13.0253 168.524 12.9507L168.524 12.9507C169.488 12.2566 170.467 11.5512 172.039 10.8886C173.78 10.1546 175.456 10.0573 177.003 10.0573ZM177.007 27.5612C177.792 27.5612 178.768 27.3403 179.363 26.9321C179.958 26.5239 180.694 25.674 180.694 24.3109C180.694 24.3109 179.158 23.7867 177.314 23.7867C175.471 23.7867 174.344 24.1661 174.344 25.5692C174.344 26.207 174.609 26.5495 175.061 26.9321C175.513 27.3148 176.222 27.5612 177.007 27.5612ZM92.4696 10.6803V32.0007H85.6711V16.578H78.9391V32.0007H72.1406V10.6803H92.4696ZM232.898 22.2127L229.021 30.2041H224.884L220.93 22.2127V32.2906H214.452V10.6803H221.795L227.105 21.5412L232.647 10.6803H239.362V32.2906H232.898V22.2127ZM124.893 30.8615C126.58 31.8144 128.473 32.2908 130.57 32.2908C132.691 32.2908 134.596 31.8144 136.283 30.8615C137.971 29.9086 139.285 28.5852 140.225 26.8912C141.165 25.1973 141.635 23.2783 141.635 21.1344C141.635 18.9904 141.165 17.0847 140.225 15.4172C139.285 13.7232 137.971 12.413 136.283 11.4866C134.596 10.5338 132.691 10.0573 130.57 10.0573C128.448 10.0573 126.544 10.5338 124.856 11.4866C123.193 12.413 121.879 13.7232 120.915 15.4172C119.975 17.1112 119.505 19.0169 119.505 21.1344C119.505 23.2783 119.975 25.1973 120.915 26.8912C121.879 28.5852 123.205 29.9086 124.893 30.8615ZM133.535 24.9458C132.764 25.8457 131.775 26.2957 130.57 26.2957C129.365 26.2957 128.376 25.8457 127.605 24.9458C126.833 24.0194 126.448 22.7489 126.448 21.1344C126.448 19.5463 126.833 18.3022 127.605 17.4023C128.376 16.5024 129.365 16.0524 130.57 16.0524C131.775 16.0524 132.764 16.5024 133.535 17.4023C134.307 18.3022 134.692 19.5463 134.692 21.1344C134.692 22.7489 134.307 24.0194 133.535 24.9458ZM108.035 10.0573C109.817 10.0573 111.431 10.52 112.875 11.4454C114.344 12.3444 115.5 13.6399 116.343 15.332C117.21 16.9977 117.643 18.941 117.643 21.1619C117.643 23.3828 117.21 25.3393 116.343 27.0315C115.5 28.6971 114.344 29.9927 112.875 30.918C111.431 31.817 109.817 32.2665 108.035 32.2665C105.748 32.2665 104.166 32.0373 102.582 30.7334V39.3556H95.7191V10.6807H102.353V12.343C103.629 10.6773 105.459 10.0573 108.035 10.0573ZM106.532 26.3951C107.736 26.3951 108.782 25.8285 109.552 24.9295C110.323 24.0041 110.708 22.7483 110.708 21.1619C110.708 19.5755 110.323 18.3329 109.552 17.4339C108.782 16.5086 107.795 16.0459 106.591 16.0459C105.387 16.0459 104.4 16.5086 103.629 17.4339C102.858 18.3329 102.473 19.5755 102.473 21.1619C102.473 22.7483 102.858 24.0041 103.629 24.9295C104.4 25.8285 105.328 26.3951 106.532 26.3951ZM211.426 23.7622C211.655 22.9311 211.741 21.6843 211.741 20.6454C211.741 18.5675 211.232 16.9052 210.19 15.0351C209.281 13.4044 207.398 11.9182 206.26 11.2948C204.681 10.4286 203.067 10.0481 201.13 10.0481C199.096 10.0481 197.338 10.5854 195.712 11.5026C194.085 12.4199 192.713 13.7883 191.885 15.1389C190.977 16.7441 190.231 18.1901 190.231 21.2687C190.231 22.7233 190.645 25.0089 191.837 27.0839C192.713 28.5414 194.133 29.9885 195.855 30.9057C197.578 31.823 199.024 32.2816 201.296 32.2816C205.226 32.2816 208.143 31.0174 210.046 29.0075L206.053 25.2167C205.64 25.6323 205.019 26.1518 204.192 26.4635L204.112 26.4935C203.576 26.6967 203.095 26.8791 201.813 26.8791C201.089 26.8791 200.291 26.7035 199.538 26.3596C198.401 25.8401 197.508 25.0089 197.198 23.7622H211.426ZM198.09 16.5935C198.808 15.9565 200.055 15.4506 201.4 15.4506C202.951 15.4506 204.192 16.074 204.709 16.5935C205.019 16.9052 205.743 17.7363 205.743 18.7753H197.056C197.056 18.1519 197.397 17.2304 198.09 16.5935ZM207.536 5.68601C207.536 7.05333 206.265 8.16177 204.696 8.16177C203.127 8.16177 201.856 7.05333 201.856 5.68601C201.856 4.31868 203.127 3.21025 204.696 3.21025C206.265 3.21025 207.536 4.31868 207.536 5.68601ZM197.398 8.54822C198.966 8.54822 200.238 7.43979 200.238 6.07246C200.238 4.70514 198.966 3.5967 197.398 3.5967C195.829 3.5967 194.557 4.70514 194.557 6.07246C194.557 7.43979 195.829 8.54822 197.398 8.54822Z" fill="#212121"/>
        <path d="M59.9766 18.9351C62.1641 20.109 62.1641 23.2594 59.9766 24.4334L26.074 42.6283C24.0074 43.7374 21.5097 42.233 21.5097 39.8791L21.5097 3.48932C21.5097 1.13542 24.0074 -0.368967 26.074 0.740155L59.9766 18.9351Z" fill="#E9F9FF"/>
        <path d="M49.4297 18.9351C51.6172 20.109 51.6172 23.2594 49.4297 24.4334L15.5272 42.6283C13.4605 43.7374 10.9629 42.233 10.9629 39.8791L10.9629 3.48932C10.9629 1.13542 13.4605 -0.368967 15.5272 0.740155L49.4297 18.9351Z" fill="#A6E9FF"/>
        <path fill-rule="evenodd" clip-rule="evenodd" d="M35.3081 22.1248C35.6595 21.9362 35.6595 21.4323 35.3081 21.2437L4.25449 4.57771C3.9214 4.39895 3.51805 4.64024 3.51805 5.01828L3.51805 38.3502C3.51805 38.7282 3.92139 38.9695 4.25449 38.7907L35.3081 22.1248ZM38.4688 24.4334C40.6562 23.2594 40.6562 20.109 38.4688 18.9351L4.56622 0.740155C2.49959 -0.368967 0.00194928 1.13542 0.00194917 3.48932L0.0019476 39.8791C0.0019475 42.233 2.49959 43.7374 4.56621 42.6283L38.4688 24.4334Z" fill="#212121"/>
    </symbol>
    <symbol id="success" viewBox="0 0 16 13" fill="none">
        <path d="M1 5.762L5.813 11 15 1" stroke="currentColor" stroke-width="2"/>
    </symbol>
</svg>
